<svg id="visual" viewBox="0 0 900 600" width="900" height="600" xmlns="http://www.w3.org/2000/svg" xmlns:xlink="http://www.w3.org/1999/xlink" version="1.1"><path d="M0 91L13.7 92C27.3 93 54.7 95 82 96C109.3 97 136.7 97 163.8 93C191 89 218 81 245.2 82C272.3 83 299.7 93 327 94C354.3 95 381.7 87 409 84C436.3 81 463.7 83 491 76C518.3 69 545.7 53 573 56C600.3 59 627.7 81 654.8 87C682 93 709 83 736.2 79C763.3 75 790.7 77 818 79C845.3 81 872.7 83 886.3 84L900 85L900 0L886.3 0C872.7 0 845.3 0 818 0C790.7 0 763.3 0 736.2 0C709 0 682 0 654.8 0C627.7 0 600.3 0 573 0C545.7 0 518.3 0 491 0C463.7 0 436.3 0 409 0C381.7 0 354.3 0 327 0C299.7 0 272.3 0 245.2 0C218 0 191 0 163.8 0C136.7 0 109.3 0 82 0C54.7 0 27.3 0 13.7 0L0 0Z" fill="#efa7ba"></path><path d="M0 277L13.7 279C27.3 281 54.7 285 82 277C109.3 269 136.7 249 163.8 232C191 215 218 201 245.2 207C272.3 213 299.7 239 327 257C354.3 275 381.7 285 409 293C436.3 301 463.7 307 491 292C518.3 277 545.7 241 573 224C600.3 207 627.7 209 654.8 218C682 227 709 243 736.2 241C763.3 239 790.7 219 818 217C845.3 215 872.7 231 886.3 239L900 247L900 83L886.3 82C872.7 81 845.3 79 818 77C790.7 75 763.3 73 736.2 77C709 81 682 91 654.8 85C627.7 79 600.3 57 573 54C545.7 51 518.3 67 491 74C463.7 81 436.3 79 409 82C381.7 85 354.3 93 327 92C299.7 91 272.3 81 245.2 80C218 79 191 87 163.8 91C136.7 95 109.3 95 82 94C54.7 93 27.3 91 13.7 90L0 89Z" fill="#ea93aa"></path><path d="M0 331L13.7 339C27.3 347 54.7 363 82 361C109.3 359 136.7 339 163.8 323C191 307 218 295 245.2 299C272.3 303 299.7 323 327 338C354.3 353 381.7 363 409 371C436.3 379 463.7 385 491 367C518.3 349 545.7 307 573 285C600.3 263 627.7 261 654.8 277C682 293 709 327 736.2 341C763.3 355 790.7 349 818 340C845.3 331 872.7 319 886.3 313L900 307L900 245L886.3 237C872.7 229 845.3 213 818 215C790.7 217 763.3 237 736.2 239C709 241 682 225 654.8 216C627.7 207 600.3 205 573 222C545.7 239 518.3 275 491 290C463.7 305 436.3 299 409 291C381.7 283 354.3 273 327 255C299.7 237 272.3 211 245.2 205C218 199 191 213 163.8 230C136.7 247 109.3 267 82 275C54.7 283 27.3 279 13.7 277L0 275Z" fill="#e57e9a"></path><path d="M0 529L13.7 522C27.3 515 54.7 501 82 493C109.3 485 136.7 483 163.8 494C191 505 218 529 245.2 543C272.3 557 299.7 561 327 551C354.3 541 381.7 517 409 513C436.3 509 463.7 525 491 523C518.3 521 545.7 501 573 497C600.3 493 627.7 505 654.8 518C682 531 709 545 736.2 539C763.3 533 790.7 507 818 496C845.3 485 872.7 489 886.3 491L900 493L900 305L886.3 311C872.7 317 845.3 329 818 338C790.7 347 763.3 353 736.2 339C709 325 682 291 654.8 275C627.7 259 600.3 261 573 283C545.7 305 518.3 347 491 365C463.7 383 436.3 377 409 369C381.7 361 354.3 351 327 336C299.7 321 272.3 301 245.2 297C218 293 191 305 163.8 321C136.7 337 109.3 357 82 359C54.7 361 27.3 345 13.7 337L0 329Z" fill="#ca6a83"></path><path d="M0 601L13.7 601C27.3 601 54.7 601 82 601C109.3 601 136.7 601 163.8 601C191 601 218 601 245.2 601C272.3 601 299.7 601 327 601C354.3 601 381.7 601 409 601C436.3 601 463.7 601 491 601C518.3 601 545.7 601 573 601C600.3 601 627.7 601 654.8 601C682 601 709 601 736.2 601C763.3 601 790.7 601 818 601C845.3 601 872.7 601 886.3 601L900 601L900 491L886.3 489C872.7 487 845.3 483 818 494C790.7 505 763.3 531 736.2 537C709 543 682 529 654.8 516C627.7 503 600.3 491 573 495C545.7 499 518.3 519 491 521C463.7 523 436.3 507 409 511C381.7 515 354.3 539 327 549C299.7 559 272.3 555 245.2 541C218 527 191 503 163.8 492C136.7 481 109.3 483 82 491C54.7 499 27.3 513 13.7 520L0 527Z" fill="#af576d"></path></svg>